<?xml version="1.0" encoding="UTF-8"?>
<svg xmlns="http://www.w3.org/2000/svg" xmlns:xlink="http://www.w3.org/1999/xlink" viewBox="0 0 48 48" width="48px" height="48px">
<g id="surface144056329">
<path style=" stroke:none;fill-rule:nonzero;fill:rgb(87.843138%,87.843138%,87.843138%);fill-opacity:1;" d="M 5.5 40.5 L 42.5 40.5 C 44.433594 40.5 46 38.933594 46 37 L 46 11.542969 C 46 9.609375 44.433594 8.042969 42.5 8.042969 L 5.5 8.042969 C 3.566406 8.042969 2 9.609375 2 11.542969 L 2 37 C 2 38.933594 3.566406 40.5 5.5 40.5 Z M 5.5 40.5 "/>
<path style=" stroke:none;fill-rule:nonzero;fill:rgb(85.09804%,85.09804%,85.09804%);fill-opacity:1;" d="M 44.480469 12.757812 L 24 27.761719 L 3.519531 12.757812 C 3.519531 12.757812 3.421875 12.691406 3.28125 12.574219 L 26 40.5 L 42.5 40.5 C 44.433594 40.5 46 38.933594 46 37 L 46 11.441406 C 46 11.339844 45.980469 11.242188 45.96875 11.144531 C 45.816406 12.261719 44.480469 12.757812 44.480469 12.757812 Z M 44.480469 12.757812 "/>
<path style=" stroke:none;fill-rule:nonzero;fill:rgb(93.333334%,93.333334%,93.333334%);fill-opacity:1;" d="M 6.746094 40.5 L 42.5 40.5 C 44.433594 40.5 46 38.933594 46 37 L 46 11.5 Z M 6.746094 40.5 "/>
<path style=" stroke:none;fill-rule:nonzero;fill:rgb(87.843138%,87.843138%,87.843138%);fill-opacity:1;" d="M 25.746094 40.5 L 42.5 40.5 C 44.433594 40.5 46 38.933594 46 37 L 46 11.5 L 18.769531 31.617188 Z M 25.746094 40.5 "/>
<path style=" stroke:none;fill-rule:nonzero;fill:rgb(79.215688%,21.568628%,21.568628%);fill-opacity:1;" d="M 3.601562 12.757812 C 3.601562 12.757812 2.269531 11.820312 2.113281 10.703125 C 2.105469 10.804688 2.085938 10.898438 2.085938 11 L 2 11.472656 L 2 37 C 2 38.933594 3.566406 40.5 5.5 40.5 L 7 40.5 L 7 15.246094 Z M 3.601562 12.757812 "/>
<path style=" stroke:none;fill-rule:nonzero;fill:rgb(79.215688%,21.568628%,21.568628%);fill-opacity:1;" d="M 45.96875 11.144531 C 45.816406 12.261719 44.480469 12.757812 44.480469 12.757812 L 41 15.308594 L 41 40.5 L 42.5 40.5 C 44.433594 40.5 46 38.933594 46 37 L 46 11.441406 C 46 11.339844 45.980469 11.242188 45.96875 11.144531 Z M 45.96875 11.144531 "/>
<path style=" stroke:none;fill-rule:nonzero;fill:rgb(73.725492%,73.725492%,73.725492%);fill-opacity:1;" d="M 3.421875 13.308594 L 24.042969 28.28125 L 44.664062 13.308594 C 44.664062 13.308594 45.601562 12.648438 46 11.777344 L 46 11.550781 C 45.988281 9.554688 44.429688 8.039062 42.5 8.050781 L 5.5 8.050781 C 3.566406 8.050781 2 9.617188 2 11.550781 L 2 11.558594 C 2.324219 12.535156 3.421875 13.308594 3.421875 13.308594 Z M 3.421875 13.308594 "/>
<path style=" stroke:none;fill-rule:nonzero;fill:rgb(96.078432%,96.078432%,96.078432%);fill-opacity:1;" d="M 42.5 8 L 5.5 8 C 3.566406 8 2 9.535156 2 11.5 C 2 12.707031 3.519531 13.757812 3.519531 13.757812 L 24 28.257812 L 44.480469 13.757812 C 44.480469 13.757812 46 12.707031 46 11.5 C 46 9.535156 44.433594 8 42.5 8 Z M 42.5 8 "/>
<path style=" stroke:none;fill-rule:nonzero;fill:rgb(90.980393%,30.980393%,29.411766%);fill-opacity:1;" d="M 43.246094 8.082031 L 24 21.5 L 4.753906 8.082031 C 3.179688 8.417969 2 9.796875 2 11.5 C 2 12.707031 3.519531 13.757812 3.519531 13.757812 L 24 28.257812 L 44.480469 13.757812 C 44.480469 13.757812 46 12.707031 46 11.5 C 46 9.796875 44.820312 8.417969 43.246094 8.082031 Z M 43.246094 8.082031 "/>
</g>
</svg>
